HIERARCHY
ROOT Hips
{
	OFFSET 0.000000 0.000000 0.000000
	CHANNELS 6 Xposition Yposition Zposition Zrotation Yrotation Xrotation 
	JOINT LHipJoint
	{
		OFFSET 0.000000 0.000000 0.000000
		CHANNELS 3 Zrotation Yrotation Xrotation
		JOINT LeftUpLeg
		{
			OFFSET 1.363060 -1.794630 0.839290
			CHANNELS 3 Zrotation Yrotation Xrotation
			JOINT LeftLeg
			{
				OFFSET 2.448110 -6.726130 0.000000
				CHANNELS 3 Zrotation Yrotation Xrotation
				JOINT LeftFoot
				{
					OFFSET 2.562200 -7.039590 0.000000
					CHANNELS 3 Zrotation Yrotation Xrotation
					JOINT LeftToeBase
					{
						OFFSET 0.157640 -0.433110 2.322550
						CHANNELS 3 Zrotation Yrotation Xrotation
						End Site
						{
							OFFSET 0.000000 0.000000 0.000000
						}
					}
				}
			}
		}
	}
	JOINT RHipJoint
	{
		OFFSET 0.000000 0.000000 0.000000
		CHANNELS 3 Zrotation Yrotation Xrotation
		JOINT RightUpLeg
		{
			OFFSET -1.305520 -1.794630 0.839290
			CHANNELS 3 Zrotation Yrotation Xrotation
			JOINT RightLeg
			{
				OFFSET -2.542530 -6.985550 0.000000
				CHANNELS 3 Zrotation Yrotation Xrotation
				JOINT RightFoot
				{
					OFFSET -2.568260 -7.056230 0.000000
					CHANNELS 3 Zrotation Yrotation Xrotation
					JOINT RightToeBase
					{
						OFFSET -0.164730 -0.452590 2.363150
						CHANNELS 3 Zrotation Yrotation Xrotation
						End Site
						{
							OFFSET 0.000000 0.000000 0.000000
						}
					}
				}
			}
		}
	}
	JOINT LowerBack
	{
		OFFSET 0.000000 0.000000 0.000000
		CHANNELS 3 Zrotation Yrotation Xrotation
		JOINT Spine
		{
			OFFSET 0.028270 2.035590 -0.193380
			CHANNELS 3 Zrotation Yrotation Xrotation
			JOINT Spine1
			{
				OFFSET 0.056720 2.048850 -0.042750
				CHANNELS 3 Zrotation Yrotation Xrotation
				JOINT Neck
				{
					OFFSET 0.000000 0.000000 0.000000
					CHANNELS 3 Zrotation Yrotation Xrotation
					JOINT Neck1
					{
						OFFSET -0.054170 1.746240 0.172020
						CHANNELS 3 Zrotation Yrotation Xrotation
						JOINT Head
						{
							OFFSET 0.104070 1.761360 -0.123970
							CHANNELS 3 Zrotation Yrotation Xrotation
							End Site
							{
								OFFSET 0.000000 0.000000 0.000000
							}
						}
					}
				}
				JOINT LeftShoulder
				{
					OFFSET 0.000000 0.000000 0.000000
					CHANNELS 3 Zrotation Yrotation Xrotation
					JOINT LeftArm
					{
						OFFSET 3.362410 1.200890 -0.311210
						CHANNELS 3 Zrotation Yrotation Xrotation
						JOINT LeftForeArm
						{
							OFFSET 4.983000 -0.000000 -0.000000
							CHANNELS 3 Zrotation Yrotation Xrotation
							JOINT LeftHand
							{
								OFFSET 3.483560 -0.000000 -0.000000
								CHANNELS 3 Zrotation Yrotation Xrotation
								JOINT LeftFingerBase
								{
									OFFSET 0.000000 0.000000 0.000000
									CHANNELS 3 Zrotation Yrotation Xrotation
									JOINT LeftHandIndex1
									{
										OFFSET 0.715260 -0.000000 -0.000000
										CHANNELS 3 Zrotation Yrotation Xrotation
										End Site
										{
											OFFSET 0.000000 0.000000 0.000000
										}
									}
								}
								JOINT LThumb
								{
									OFFSET 0.000000 0.000000 0.000000
									CHANNELS 3 Zrotation Yrotation Xrotation
									End Site
									{
										OFFSET 0.000000 0.000000 0.000000
									}
								}
							}
						}
					}
				}
				JOINT RightShoulder
				{
					OFFSET 0.000000 0.000000 0.000000
					CHANNELS 3 Zrotation Yrotation Xrotation
					JOINT RightArm
					{
						OFFSET -3.136600 1.374050 -0.404650
						CHANNELS 3 Zrotation Yrotation Xrotation
						JOINT RightForeArm
						{
							OFFSET -5.241900 -0.000000 -0.000000
							CHANNELS 3 Zrotation Yrotation Xrotation
							JOINT RightHand
							{
								OFFSET -3.444170 -0.000000 -0.000000
								CHANNELS 3 Zrotation Yrotation Xrotation
								JOINT RightFingerBase
								{
									OFFSET 0.000000 0.000000 0.000000
									CHANNELS 3 Zrotation Yrotation Xrotation
									JOINT RightHandIndex1
									{
										OFFSET -0.622530 -0.000000 -0.000000
										CHANNELS 3 Zrotation Yrotation Xrotation
										End Site
										{
											OFFSET 0.000000 0.000000 0.000000
										}
									}
								}
								JOINT RThumb
								{
									OFFSET 0.000000 0.000000 0.000000
									CHANNELS 3 Zrotation Yrotation Xrotation
									End Site
									{
										OFFSET 0.000000 0.000000 0.000000
									}
								}
							}
						}
					}
				}
			}
		}
	}
}
MOTION
Frames: 9
Frame Time: 0.008333
7.605950 17.774359 37.573211 -178.279400 3.309160 -172.716179 3.906547 2.621103 0.009927 -20.984413 -14.137676 -10.484911 1.711693 9.335419 27.385809 1.589648 -1.562228 -22.234093 9.686400 -17.229700 -58.434800 -9.631374 -4.655354 -2.252158 34.317104 4.427652 -3.104191 -0.078721 -3.696224 14.893643 -0.857576 5.261624 -13.983185 -1.240600 7.062800 -19.901500 0.736552 1.791690 -2.131718 1.071883 1.568325 -5.018386 2.489562 0.886687 3.030210 -8.533010 -1.653911 -11.673329 6.100464 -4.057537 21.992393 2.029600 -2.479000 9.185900 1.864482 -4.839729 1.194194 -87.041848 -6.400063 21.707205 6.241618 -15.053439 -1.862697 0.310039 1.460572 32.112049 32.999933 -16.784299 -11.776400 -7.125000 0.000000 0.000000 3.489500 8.329700 -2.952800 -1.130776 5.188828 1.783059 82.877057 -6.921420 -14.658624 -5.234472 21.308512 -3.559318 -0.013343 -1.890290 20.220363 -22.783087 -40.427234 15.046200 7.125000 0.000000 0.000000 16.894700 -70.022100 -10.204500 
7.595057 17.778242 37.590360 -178.587520 3.554599 -172.722335 3.892737 2.625988 0.010854 -21.395475 -14.050957 -10.391413 1.665220 9.251099 27.140592 1.586358 -1.434426 -22.271620 9.673000 -17.221800 -58.389600 -9.620328 -4.634508 -2.232221 33.963288 4.746010 -3.243388 -0.104319 -3.773406 15.093718 -0.870849 5.223018 -14.103744 -1.248400 7.083900 -19.964300 0.416132 1.621739 -2.141919 1.087927 1.374425 -5.011302 2.636412 0.775557 3.103298 -8.577240 -1.513430 -11.842204 6.175300 -3.896103 22.255360 2.072100 -2.413700 9.328200 1.869652 -4.832025 1.190682 -87.210370 -6.608555 21.634551 6.228372 -15.045041 -1.878596 0.275240 1.479541 32.393643 33.906583 -16.149068 -11.798300 -7.125000 0.000000 0.000000 4.195500 8.856300 -3.509300 -1.123364 5.199079 1.787428 82.891931 -7.045258 -14.599314 -5.311949 21.413714 -3.589084 -0.025814 -1.882324 20.162170 -23.325281 -40.606441 15.464200 7.125000 0.000000 0.000000 16.436700 -70.354300 -10.043600 
7.584056 17.781585 37.609018 -178.791915 3.697451 -172.700075 3.882676 2.629164 0.009122 -21.655428 -13.981685 -10.311312 1.610946 9.155957 26.858875 1.571933 -1.223125 -22.272270 9.733200 -17.257000 -58.592800 -9.610857 -4.620238 -2.209640 33.723542 5.010497 -3.397248 -0.121931 -3.835111 15.242716 -0.880920 5.185410 -14.200824 -1.207100 6.970100 -19.627000 0.237775 1.507413 -2.156763 1.087759 1.240103 -5.015713 2.640989 0.699174 3.121286 -8.463494 -1.363068 -11.914401 6.266424 -3.775284 22.525318 2.088000 -2.355500 9.450800 1.879748 -4.829030 1.190550 -87.307076 -6.792676 21.504888 6.121789 -14.912831 -1.872267 0.251326 1.495533 33.065371 34.752649 -15.545314 -11.793000 -7.125000 0.000000 0.000000 4.861100 9.367600 -4.019900 -1.142880 5.221843 1.788868 83.132314 -7.208730 -15.061634 -5.378001 21.448254 -3.606054 -0.045651 -1.891245 20.444821 -23.402598 -40.444101 15.456800 7.125000 0.000000 0.000000 16.114800 -70.214900 -9.793700 
7.575751 17.785684 37.627569 -178.876017 3.855190 -172.683880 3.872065 2.632864 0.005506 -21.739339 -13.823633 -10.247989 1.553863 9.050657 26.545491 1.561509 -1.106982 -22.251073 9.748500 -17.266000 -58.644300 -9.608260 -4.607068 -2.184007 33.634691 5.303128 -3.504197 -0.132401 -3.883433 15.352822 -0.889390 5.162646 -14.281282 -1.126600 6.741900 -18.953100 0.172317 1.492904 -2.119549 1.076878 1.228802 -5.035270 2.574092 0.687032 3.089139 -8.153714 -3.749089 -11.910362 5.861010 -2.977476 23.106647 2.175200 -0.431000 9.648300 1.921957 -4.808155 1.153908 -87.426253 -6.949806 21.246164 5.996692 -14.754473 -1.867770 0.263092 1.508004 34.038424 35.529386 -15.681152 -12.234300 -7.125000 0.000000 0.000000 5.348100 9.013800 -4.464200 -1.169342 5.250990 1.757118 83.472398 -7.260788 -16.324482 -5.184747 21.058490 -3.546248 -0.132489 -1.885615 21.003668 -24.571850 -39.982842 16.056800 7.125000 0.000000 0.000000 14.039600 -70.115200 -8.483600 
7.569064 17.790861 37.641805 -178.905074 4.012940 -172.672967 3.860322 2.639777 0.005656 -21.748154 -13.624892 -10.195796 1.493983 8.938589 26.212244 1.540815 -0.956851 -22.172901 9.794000 -17.292400 -58.797700 -9.609781 -4.594901 -2.157780 33.608964 5.581976 -3.554203 -0.136773 -3.908082 15.404057 -0.897652 5.192711 -14.345843 -1.061200 6.549500 -18.387400 0.156667 1.510858 -2.061367 1.071759 1.258369 -5.079292 2.515707 0.704013 2.937858 -7.823716 -3.722208 -12.202565 5.805087 -2.819668 23.750535 2.116800 -0.269300 9.996200 1.956072 -4.791875 1.128493 -87.591527 -6.868079 21.278971 6.066934 -14.862086 -1.909664 0.279290 1.519832 34.434550 36.244106 -16.221464 -12.933200 -7.125000 0.000000 0.000000 5.710900 8.178700 -4.865300 -1.210549 5.313297 1.751719 83.809147 -7.310438 -17.753065 -4.914462 20.533771 -3.467395 -0.212376 -1.885671 21.839617 -25.128136 -40.085291 16.437600 7.125000 0.000000 0.000000 13.457200 -70.358900 -8.200100 
7.560976 17.796900 37.652806 -178.878037 4.120623 -172.656782 3.849628 2.646470 0.003453 -21.705825 -13.435264 -10.130363 1.432805 8.819675 25.859845 1.506211 -0.804321 -21.991840 9.844100 -17.321300 -58.966100 -9.616534 -4.587256 -2.138083 33.644391 5.807884 -3.562323 -0.132298 -3.909431 15.394389 -0.898172 5.169102 -14.358140 -1.030800 6.457900 -18.119000 0.227757 1.525783 -2.046982 1.076338 1.276034 -5.108991 2.443213 0.709966 2.872538 -7.407456 -3.654402 -12.688047 5.696043 -2.592608 24.422071 2.027600 -0.072100 10.401500 1.997145 -4.759163 1.099286 -87.806070 -6.811087 21.368578 6.178412 -15.022599 -1.957894 0.291585 1.528880 34.411641 36.817216 -16.863955 -13.651600 -7.125000 0.000000 0.000000 5.953300 7.249000 -5.183300 -1.249161 5.371932 1.747740 84.085478 -7.263182 -19.388093 -4.642610 19.937711 -3.369753 -0.248020 -1.898016 23.424334 -23.874926 -40.304380 15.662400 7.125000 0.000000 0.000000 15.389800 -70.175500 -9.332500 
7.552671 17.802832 37.661219 -178.902862 4.210281 -172.683332 3.842043 2.650395 -0.003388 -21.738291 -13.227290 -10.040993 1.387449 8.722367 25.581238 1.465752 -0.690806 -21.742409 9.838700 -17.318200 -58.948100 -9.622376 -4.586227 -2.132127 33.612551 5.946927 -3.512269 -0.127445 -3.894154 15.351624 -0.888386 5.141526 -14.284449 -0.980100 6.301900 -17.662900 0.247001 1.515796 -2.070905 1.089239 1.258874 -5.098956 2.494046 0.702530 2.912341 -7.854690 -3.980269 -12.558566 5.731320 -2.808570 25.293963 2.172400 -0.139000 10.777500 2.018921 -4.764097 1.086424 -88.147824 -6.819751 21.305913 6.270056 -15.144262 -1.985016 0.306265 1.524094 34.318675 36.897980 -17.333330 -14.009200 -7.125000 0.000000 0.000000 5.908000 6.666100 -5.210700 -1.302182 5.345091 1.750055 84.184926 -7.122948 -21.172852 -4.051857 18.893151 -3.177757 -0.374535 -1.844371 24.493546 -25.563277 -39.406347 16.448800 7.125000 0.000000 0.000000 12.201400 -69.839200 -7.285800 
7.544151 17.806607 37.665101 -179.131037 4.248103 -172.771980 3.832684 2.665026 0.003873 -22.048069 -13.110448 -9.873501 1.347938 8.637207 25.346828 1.424433 -0.485714 -21.538160 9.890400 -17.347800 -59.121500 -9.610879 -4.583888 -2.145294 33.302025 5.889419 -3.423112 -0.129109 -3.853437 15.266844 -0.881891 5.223045 -14.203634 -0.927300 6.134500 -17.175300 0.061500 1.410343 -2.094996 1.110251 1.139238 -5.090053 2.609516 0.625716 3.023845 -7.756368 -3.926423 -13.081162 5.640531 -2.511384 26.106010 2.176300 0.062500 11.264800 2.054251 -4.722614 1.057928 -88.579578 -6.777613 21.267044 6.362351 -15.272221 -2.003977 0.307293 1.514521 34.178124 36.820763 -17.256837 -13.911000 -7.125000 0.000000 0.000000 5.868300 6.785500 -5.161700 -1.319757 5.362903 1.757606 84.156738 -6.966739 -22.786466 -3.574881 17.971204 -3.028825 -0.475744 -1.786823 26.039787 -26.628168 -39.434689 17.157600 7.125000 0.000000 0.000000 10.898200 -70.210300 -6.591000 
7.533797 17.808548 37.670710 -179.417034 4.265301 -172.829424 3.826077 2.682591 0.014140 -22.441633 -13.057303 -9.738847 1.304592 8.549787 25.100014 1.380325 -0.223845 -21.347449 9.992300 -17.405500 -59.462700 -9.589756 -4.578573 -2.158872 32.892756 5.774597 -3.435752 -0.139907 -3.833525 15.233063 -0.877022 5.343044 -14.131365 -0.942300 6.182700 -17.315400 -0.143756 1.318003 -2.100574 1.111008 1.044522 -5.090202 2.615674 0.549297 3.137604 -7.012677 -3.788486 -14.129085 5.109037 -2.032656 27.121294 1.881700 0.387800 11.975200 2.104991 -4.642942 1.012713 -88.942359 -6.768577 21.661950 6.460988 -15.415127 -2.017360 0.282461 1.508571 33.610732 36.701167 -16.657910 -13.436900 -7.125000 0.000000 0.000000 5.903700 7.541700 -5.105600 -1.329736 5.431553 1.759576 84.191892 -6.803814 -24.345277 -3.162372 17.123814 -2.895885 -0.554175 -1.744747 27.818704 -26.850455 -39.658284 17.379900 7.125000 0.000000 0.000000 10.915900 -70.510500 -6.674700 
